<svg width="1200" height="630" viewBox="0 0 1200 630" fill="none" xmlns="http://www.w3.org/2000/svg">
  <rect width="1200" height="630" fill="#080B0A"/>
  <g opacity=".13" stroke="#F1F0E9">
    <path d="M0 70H1200M0 140H1200M0 210H1200M0 280H1200M0 350H1200M0 420H1200M0 490H1200M0 560H1200"/>
    <path d="M70 0V630M140 0V630M210 0V630M280 0V630M350 0V630M420 0V630M490 0V630M560 0V630M630 0V630M700 0V630M770 0V630M840 0V630M910 0V630M980 0V630M1050 0V630M1120 0V630"/>
  </g>
  <rect x="62" y="56" width="72" height="72" rx="18" fill="#CBFF3D"/>
  <path d="M77 110V74L90 91L98 80L106 91L119 74V110M77 74L98 110L119 74" stroke="#080B0A" stroke-width="6" stroke-linejoin="miter"/>
  <text x="154" y="85" fill="#F1F0E9" font-family="Arial, sans-serif" font-size="25" font-weight="700" letter-spacing="3">MONTANA</text>
  <text x="154" y="113" fill="#D7D7CF" font-family="monospace" font-size="13" letter-spacing="6">TECH LAB</text>
  <text x="62" y="278" fill="#F1F0E9" font-family="Arial, sans-serif" font-size="75" font-weight="700" letter-spacing="-4">TECNOLOGIA QUE</text>
  <text x="62" y="362" fill="#F1F0E9" font-family="Arial, sans-serif" font-size="75" font-weight="700" letter-spacing="-4">MOVE</text>
  <text x="270" y="362" fill="#CBFF3D" font-family="Arial, sans-serif" font-size="75" font-weight="700" letter-spacing="-4">VENDAS.</text>
  <text x="64" y="425" fill="#D7D7CF" font-family="Arial, sans-serif" font-size="22">Tráfego, produto e automação conectados.</text>
  <circle cx="950" cy="315" r="180" stroke="#CBFF3D" stroke-opacity=".18"/>
  <circle cx="950" cy="315" r="125" stroke="#566DFF" stroke-opacity=".45" stroke-dasharray="5 8"/>
  <rect x="885" y="250" width="130" height="130" rx="30" fill="#CBFF3D"/>
  <path d="M910 348V282L934 313L950 293L966 313L990 282V348M910 282L950 348L990 282" stroke="#080B0A" stroke-width="12" stroke-linejoin="miter"/>
  <rect x="824" y="130" width="160" height="56" fill="#080B0A" stroke="#F1F0E9" stroke-opacity=".25"/>
  <text x="842" y="153" fill="#CBFF3D" font-family="monospace" font-size="10">01 / ATRAÇÃO</text>
  <text x="842" y="170" fill="#F1F0E9" font-family="monospace" font-size="11">TRÁFEGO</text>
  <rect x="1000" y="430" width="150" height="56" fill="#080B0A" stroke="#F1F0E9" stroke-opacity=".25"/>
  <text x="1018" y="453" fill="#CBFF3D" font-family="monospace" font-size="10">03 / ESCALA</text>
  <text x="1018" y="470" fill="#F1F0E9" font-family="monospace" font-size="11">CRM + IA</text>
  <rect x="62" y="548" width="310" height="34" fill="#CBFF3D"/>
  <text x="80" y="570" fill="#080B0A" font-family="monospace" font-size="12" font-weight="700" letter-spacing="1">IDEIA → SISTEMA → CRESCIMENTO</text>
</svg>
